<svg xmlns="http://www.w3.org/2000/svg" viewBox="0 0 1200 630" role="img" aria-labelledby="title desc">
  <title id="title">Transactional Event Queues Multi-Database Replication Example | Oracle AI Database Code Samples</title>
  <desc id="desc">A sample social preview card for Transactional Event Queues Multi-Database Replication Example.</desc>
  <defs>
    <linearGradient id="bg" x1="0%" y1="0%" x2="100%" y2="100%">
      <stop offset="0%" stop-color="#091422" />
      <stop offset="58%" stop-color="#07111d" />
      <stop offset="100%" stop-color="#061019" />
    </linearGradient>
    <radialGradient id="glowCyan" cx="16%" cy="10%" r="80%">
      <stop offset="0%" stop-color="#59d4ff" stop-opacity="0.33" />
      <stop offset="100%" stop-color="#59d4ff" stop-opacity="0" />
    </radialGradient>
    <radialGradient id="glowWarm" cx="96%" cy="16%" r="80%">
      <stop offset="0%" stop-color="#ffb066" stop-opacity="0.24" />
      <stop offset="100%" stop-color="#ffb066" stop-opacity="0" />
    </radialGradient>
    <linearGradient id="panel" x1="0%" y1="0%" x2="0%" y2="100%">
      <stop offset="0%" stop-color="#13253d" stop-opacity="0.97" />
      <stop offset="100%" stop-color="#091525" stop-opacity="0.96" />
    </linearGradient>
    <linearGradient id="tileGlow" x1="0%" y1="0%" x2="100%" y2="100%">
      <stop offset="0%" stop-color="#ffffff" stop-opacity="0.45" />
      <stop offset="100%" stop-color="#59d4ff" stop-opacity="0.14" />
    </linearGradient>
  </defs>

  <rect width="1200" height="630" fill="url(#bg)" />
  <rect width="1200" height="630" fill="url(#glowCyan)" />
  <rect width="1200" height="630" fill="url(#glowWarm)" />
  <g opacity="0.13">
    <path d="M0 86H1200M0 172H1200M0 258H1200M0 344H1200M0 430H1200M0 516H1200" stroke="#d7e6ff" />
    <path d="M110 0V630M220 0V630M330 0V630M440 0V630M550 0V630M660 0V630M770 0V630M880 0V630M990 0V630M1100 0V630" stroke="#d7e6ff" />
  </g>

  <rect x="70" y="70" width="1060" height="490" rx="34" fill="url(#panel)" stroke="#a0c5ff" stroke-opacity="0.22" />
  <rect x="70" y="70" width="1060" height="490" rx="34" fill="none" stroke="#ffffff" stroke-opacity="0.05" />

  <g transform="translate(126 126)">
    <text x="0" y="0" fill="#59d4ff" font-family="Avenir Next, Segoe UI, Helvetica Neue, Arial, sans-serif" font-size="19" font-weight="800">ORACLE AI DATABASE CODE SAMPLE</text>
    <text x="0" y="90" fill="#f4f7ff" font-family="Avenir Next, Segoe UI, Helvetica Neue, Arial, sans-serif" font-size="58" font-weight="800">Transactional Event</text>
<text x="0" y="156" fill="#f4f7ff" font-family="Avenir Next, Segoe UI, Helvetica Neue, Arial, sans-serif" font-size="58" font-weight="800">Queues Multi-Database</text>
    <text x="0" y="244" fill="#a9b8cf" font-family="Avenir Next, Segoe UI, Helvetica Neue, Arial, sans-serif" font-size="25" font-weight="500">Multi-database TxEventQ replication sample using JMS</text>
<text x="0" y="279" fill="#a9b8cf" font-family="Avenir Next, Segoe UI, Helvetica Neue, Arial, sans-serif" font-size="25" font-weight="500">and database links.</text>
    <g transform="translate(0 344)">
      
        <g transform="translate(0 0)">
          <rect x="0" y="0" width="134" height="42" rx="21" fill="#0d2036" stroke="#59d4ff" stroke-opacity="0.42" />
          <text x="67" y="27" text-anchor="middle" fill="#f4f7ff" font-family="Avenir Next, Segoe UI, Helvetica Neue, Arial, sans-serif" font-size="18" font-weight="700">TxEventQ</text>
        </g>
    </g>
    <text x="0" y="430" fill="#73859f" font-family="Avenir Next, Segoe UI, Helvetica Neue, Arial, sans-serif" font-size="18" font-weight="700">txeventq-multidb-replication</text>
  </g>

  
        <g>
          <rect x="816" y="116" width="144" height="144" rx="28" fill="#f7f4ee" stroke="#ffffff" stroke-opacity="0.58" />
          <rect x="816" y="116" width="144" height="144" rx="28" fill="url(#tileGlow)" />
          <svg x="848" y="140" width="92" height="92" viewBox="0 0 99 100" preserveAspectRatio="xMidYMid meet"><g transform="translate(-602 -524)"><g><g><g><g><path d="M652 534.528C630.236 534.528 612.528 552.236 612.528 574 612.528 595.764 630.236 613.472 652 613.472 673.764 613.472 691.472 595.764 691.472 574 691.472 552.236 673.764 534.528 652 534.528ZM652 610.75C631.736 610.75 615.25 594.264 615.25 574 615.25 553.736 631.736 537.25 652 537.25 672.264 537.25 688.75 553.736 688.75 574 688.75 594.264 672.264 610.75 652 610.75ZM652 539.972C633.237 539.972 617.972 555.237 617.972 574 617.972 592.763 633.237 608.028 652 608.028 670.763 608.028 686.028 592.763 686.028 574 686.028 555.237 670.763 539.972 652 539.972ZM652 605.306C634.738 605.306 620.694 591.262 620.694 574 620.694 556.738 634.738 542.694 652 542.694 669.262 542.694 683.306 556.738 683.306 574 683.306 591.262 669.262 605.306 652 605.306ZM649.924 561.716 634.306 561.716 634.306 558.994 649.924 558.994 644.003 553.583 645.841 551.576 655.403 560.389 645.841 569.202 644.003 567.194 649.924 561.716ZM645.841 578.798 655.403 587.611 645.841 596.424 644.003 594.417 649.924 588.938 634.306 588.938 634.306 586.216 649.924 586.216 644.003 580.806 645.841 578.798ZM674.458 574 664.897 582.813 663.059 580.806 668.98 575.327 653.361 575.327 653.361 572.605 668.98 572.605 663.059 567.194 664.897 565.187 674.458 574Z" fill="#312D2A" fill-rule="nonzero" fill-opacity="1"/></g></g></g></g></g></svg>
          <text text-anchor="middle" x="888" y="231" fill="#2f2925" font-family="Avenir Next, Segoe UI, Helvetica Neue, Arial, sans-serif" font-size="16" font-weight="700">TxEventQ</text>
        </g>

        <g>
          <rect x="972" y="236" width="144" height="144" rx="28" fill="#f7f4ee" stroke="#ffffff" stroke-opacity="0.58" />
          <rect x="972" y="236" width="144" height="144" rx="28" fill="url(#tileGlow)" />
          <svg x="1004" y="260" width="92" height="92" viewBox="0 0 97 100" preserveAspectRatio="xMidYMid meet"><g transform="translate(-1096 -524)"><g><g><g><g><path d="M53.5521 23.9132 41.4271 23.9132 41.4271 26.6076 53.5521 26.6076 53.5521 23.9132Z" fill="#312D2A" fill-rule="nonzero" fill-opacity="1" transform="matrix(1 0 0 1.01031 1096 525)"/><path d="M31.9965 50.184 44.1215 50.184 44.1215 47.4896 31.9965 47.4896 31.9965 50.184Z" fill="#312D2A" fill-rule="nonzero" fill-opacity="1" transform="matrix(1 0 0 1.01031 1096 525)"/><path d="M17.8507 50.184 20.5451 50.184 20.5451 47.4896 17.8507 47.4896 17.8507 50.184Z" fill="#312D2A" fill-rule="nonzero" fill-opacity="1" transform="matrix(1 0 0 1.01031 1096 525)"/><path d="M25.2604 23.9132 17.8507 23.9132 17.8507 26.6076 25.2604 26.6076 25.2604 23.9132Z" fill="#312D2A" fill-rule="nonzero" fill-opacity="1" transform="matrix(1 0 0 1.01031 1096 525)"/><path d="M58.2674 23.9132 55.5729 23.9132 55.5729 26.6076 58.2674 26.6076 58.2674 23.9132Z" fill="#312D2A" fill-rule="nonzero" fill-opacity="1" transform="matrix(1 0 0 1.01031 1096 525)"/><path d="M34.691 23.9132 31.9965 23.9132 31.9965 26.6076 34.691 26.6076 34.691 23.9132Z" fill="#312D2A" fill-rule="nonzero" fill-opacity="1" transform="matrix(1 0 0 1.01031 1096 525)"/><path d="M29.9757 23.9132 27.2812 23.9132 27.2812 26.6076 29.9757 26.6076 29.9757 23.9132Z" fill="#312D2A" fill-rule="nonzero" fill-opacity="1" transform="matrix(1 0 0 1.01031 1096 525)"/><path d="M62.9826 23.9132 60.2882 23.9132 60.2882 26.6076 62.9826 26.6076 62.9826 23.9132Z" fill="#312D2A" fill-rule="nonzero" fill-opacity="1" transform="matrix(1 0 0 1.01031 1096 525)"/><path d="M38.059 26.6076C38.8 26.6076 39.4062 26.0014 39.4062 25.2604 39.4062 24.5194 38.8 23.9132 38.059 23.9132 37.3181 23.9132 36.7118 24.5194 36.7118 25.2604 36.7118 26.0014 37.3181 26.6076 38.059 26.6076L38.059 26.6076Z" fill="#312D2A" fill-rule="nonzero" fill-opacity="1" transform="matrix(1 0 0 1.01031 1096 525)"/><path d="M66.3507 23.9132C65.6097 23.9132 65.0035 24.5194 65.0035 25.2604 65.0035 26.0014 65.6097 26.6076 66.3507 26.6076 67.0917 26.6076 67.6979 26.0014 67.6979 25.2604 67.6979 24.5194 67.0917 23.9132 66.3507 23.9132L66.3507 23.9132Z" fill="#312D2A" fill-rule="nonzero" fill-opacity="1" transform="matrix(1 0 0 1.01031 1096 525)"/><path d="M50.8576 48.8368C50.8576 49.5778 51.4639 50.184 52.2049 50.184 52.9458 50.184 53.5521 49.5778 53.5521 48.8368 53.5521 48.0958 52.9458 47.4896 52.2049 47.4896 51.4639 47.4896 50.8576 48.0958 50.8576 48.8368L50.8576 48.8368Z" fill="#312D2A" fill-rule="nonzero" fill-opacity="1" transform="matrix(1 0 0 1.01031 1096 525)"/><path d="M66.3507 71.066C65.6097 71.066 65.0035 71.6722 65.0035 72.4132 65.0035 73.1542 65.6097 73.7604 66.3507 73.7604 67.0917 73.7604 67.6979 73.1542 67.6979 72.4132 67.6979 71.6722 67.0917 71.066 66.3507 71.066L66.3507 71.066Z" fill="#312D2A" fill-rule="nonzero" fill-opacity="1" transform="matrix(1 0 0 1.01031 1096 525)"/><path d="M48.8368 50.184 48.8368 47.4896 46.1424 47.4896 46.1424 50.184 48.8368 50.184Z" fill="#312D2A" fill-rule="nonzero" fill-opacity="1" transform="matrix(1 0 0 1.01031 1096 525)"/><path d="M28.6285 50.184C29.3694 50.184 29.9757 49.5778 29.9757 48.8368 29.9757 48.0958 29.3694 47.4896 28.6285 47.4896 27.8875 47.4896 27.2812 48.0958 27.2812 48.8368 27.2812 49.5778 27.8875 50.184 28.6285 50.184L28.6285 50.184Z" fill="#312D2A" fill-rule="nonzero" fill-opacity="1" transform="matrix(1 0 0 1.01031 1096 525)"/><path d="M25.2604 50.184 25.2604 47.4896 22.566 47.4896 22.566 50.184 25.2604 50.184Z" fill="#312D2A" fill-rule="nonzero" fill-opacity="1" transform="matrix(1 0 0 1.01031 1096 525)"/><path d="M55.5729 50.184 67.6979 50.184 67.6979 47.4896 55.5729 47.4896 55.5729 50.184Z" fill="#312D2A" fill-rule="nonzero" fill-opacity="1" transform="matrix(1 0 0 1.01031 1096 525)"/><path d="M46.1424 73.7604 58.2674 73.7604 58.2674 71.066 46.1424 71.066 46.1424 73.7604Z" fill="#312D2A" fill-rule="nonzero" fill-opacity="1" transform="matrix(1 0 0 1.01031 1096 525)"/><path d="M60.2882 73.7604 62.9826 73.7604 62.9826 71.066 60.2882 71.066 60.2882 73.7604Z" fill="#312D2A" fill-rule="nonzero" fill-opacity="1" transform="matrix(1 0 0 1.01031 1096 525)"/><path d="M42.7743 71.066C42.0333 71.066 41.4271 71.6722 41.4271 72.4132 41.4271 73.1542 42.0333 73.7604 42.7743 73.7604 43.5153 73.7604 44.1215 73.1542 44.1215 72.4132 44.1215 71.6722 43.5153 71.066 42.7743 71.066L42.7743 71.066Z" fill="#312D2A" fill-rule="nonzero" fill-opacity="1" transform="matrix(1 0 0 1.01031 1096 525)"/><path d="M19.1979 71.066C18.4569 71.066 17.8507 71.6722 17.8507 72.4132 17.8507 73.1542 18.4569 73.7604 19.1979 73.7604 19.9389 73.7604 20.5451 73.1542 20.5451 72.4132 20.5451 71.6722 19.9389 71.066 19.1979 71.066L19.1979 71.066Z" fill="#312D2A" fill-rule="nonzero" fill-opacity="1" transform="matrix(1 0 0 1.01031 1096 525)"/><path d="M22.566 73.7604 34.691 73.7604 34.691 71.066 22.566 71.066 22.566 73.7604Z" fill="#312D2A" fill-rule="nonzero" fill-opacity="1" transform="matrix(1 0 0 1.01031 1096 525)"/><path d="M36.7118 73.7604 39.4062 73.7604 39.4062 71.066 36.7118 71.066 36.7118 73.7604Z" fill="#312D2A" fill-rule="nonzero" fill-opacity="1" transform="matrix(1 0 0 1.01031 1096 525)"/><path d="M82.1806 81.8438C82.1806 82.0122 82.0122 82.1806 81.8438 82.1806L15.1562 82.1806C14.9878 82.1806 14.8194 82.0122 14.8194 81.8438L14.8194 15.1562C14.8194 14.9878 14.9878 14.8194 15.1562 14.8194L81.8438 14.8194C82.0122 14.8194 82.1806 14.9878 82.1806 15.1562L82.1806 81.8438ZM81.8438 12.125 15.1562 12.125C13.4722 12.125 12.125 13.4722 12.125 15.1562L12.125 81.8438C12.125 83.5278 13.4722 84.875 15.1562 84.875L81.8438 84.875C83.5278 84.875 84.875 83.5278 84.875 81.8438L84.875 15.1562C84.875 13.4722 83.5278 12.125 81.8438 12.125Z" fill="#312D2A" fill-rule="nonzero" fill-opacity="1" transform="matrix(1 0 0 1.01031 1096 525)"/><path d="M69.7524 43.1448 74.0972 47.4896 69.7188 47.4896 69.7188 50.184 74.2656 50.184 69.7524 54.6972 71.6722 56.617 79.3514 48.9042 71.6722 41.225 69.7524 43.1448Z" fill="#312D2A" fill-rule="nonzero" fill-opacity="1" transform="matrix(1 0 0 1.01031 1096 525)"/><path d="M69.7524 19.501 74.1646 23.9132 69.7188 23.9132 69.7188 26.6076 74.2319 26.6076 69.7524 31.0872 71.6722 32.9733 79.3514 25.2941 71.6722 17.6149 69.7524 19.501Z" fill="#312D2A" fill-rule="nonzero" fill-opacity="1" transform="matrix(1 0 0 1.01031 1096 525)"/><path d="M69.7524 66.6538 74.1646 71.066 69.7188 71.066 69.7188 73.7604 74.2319 73.7604 69.7524 78.2399 71.6722 80.126 79.3514 72.4469 71.6722 64.7677 69.7524 66.6538Z" fill="#312D2A" fill-rule="nonzero" fill-opacity="1" transform="matrix(1 0 0 1.01031 1096 525)"/></g></g></g></g></g></svg>
          <text text-anchor="middle" x="1044" y="351" fill="#2f2925" font-family="Avenir Next, Segoe UI, Helvetica Neue, Arial, sans-serif" font-size="16" font-weight="700">JMS</text>
        </g>

        <g>
          <rect x="816" y="356" width="144" height="144" rx="28" fill="#f7f4ee" stroke="#ffffff" stroke-opacity="0.58" />
          <rect x="816" y="356" width="144" height="144" rx="28" fill="url(#tileGlow)" />
          <svg x="848" y="380" width="92" height="92" viewBox="0 0 99 100" preserveAspectRatio="xMidYMid meet"><g transform="translate(-602 -524)"><g><g><g><g><path d="M38.5285 9.39118C39.2426 9.78396 40.0639 9.99821 40.9209 9.99821 43.6704 9.99821 45.92 7.74861 45.92 4.9991 45.92 2.2496 43.6704 0 40.9209 0 38.1714 0 35.9218 2.2496 35.9218 4.9991 35.9218 5.85609 36.136 6.64167 36.4931 7.35583L34.5292 9.31976 34.5292 13.3548 38.5285 9.39118ZM40.9209 2.89234C42.0993 2.89234 43.0634 3.85645 43.0634 5.03481 43.0634 6.21317 42.0993 7.17729 40.9209 7.17729 39.7425 7.17729 38.7784 6.21317 38.7784 5.03481 38.7784 3.85645 39.7425 2.89234 40.9209 2.89234Z" fill="#312D2A" fill-rule="nonzero" fill-opacity="1" transform="matrix(1.00569 0 0 1 617.526 542.398)"/><path d="M36.5295 55.5258C36.1725 56.2399 35.9582 57.0255 35.9582 57.8825 35.9582 60.632 38.2078 62.8816 40.9573 62.8816 43.7068 62.8816 45.9564 60.632 45.9564 57.8825 45.9564 55.133 43.7068 52.8834 40.9573 52.8834 40.1003 52.8834 39.279 53.0976 38.5649 53.4904L34.5655 49.4911 34.5655 53.5261 36.5295 55.5258ZM40.9216 55.74C42.1 55.74 43.0641 56.7041 43.0641 57.8825 43.0641 59.0609 42.1 60.025 40.9216 60.025 39.7432 60.025 38.7791 59.0609 38.7791 57.8825 38.7791 56.7041 39.7432 55.74 40.9216 55.74Z" fill="#312D2A" fill-rule="nonzero" fill-opacity="1" transform="matrix(1.00569 0 0 1 617.526 542.398)"/><path d="M32.3871 4.53501C32.3871 2.10688 30.4945 0.107235 28.0664 0.0358193 26.3167-0.0355963 24.6027 0.250067 22.9245 0.892808 19.925 1.99975 17.3897 4.10651 15.7115 6.85602 8.85556 7.74872 3.6065 13.6762 3.6065 20.6393 3.6065 21.0678 3.6422 21.532 3.67791 22.0319 1.32119 24.6028 0 27.9237 0 31.4588 0 34.9938 1.28548 38.2789 3.67791 40.8855 3.6422 41.3497 3.6065 41.8139 3.6065 42.2424 3.6065 49.2055 8.81985 55.0973 15.6401 56.0257 18.1396 60.2749 22.6745 62.9173 27.6379 62.9173 27.745 62.9173 27.8879 62.9173 27.995 62.9173 30.4231 62.8459 32.3871 60.8462 32.3871 58.4181L32.3871 4.53501ZM27.9236 60.025C27.8165 60.025 27.745 60.025 27.6379 60.025 23.4958 60.025 19.7108 57.704 17.8182 54.026L17.4612 53.3119 16.6756 53.2405C10.9623 52.7763 6.49884 47.9557 6.49884 42.2067 6.49884 41.7068 6.53454 41.2069 6.64167 40.5642L6.74879 39.85 6.21317 39.3501C4.0707 37.2433 2.89234 34.4582 2.89234 31.4588 2.89234 28.4593 4.0707 25.6741 6.21317 23.5673L6.74879 23.0674 6.64167 22.3532C6.53454 21.7105 6.49884 21.1749 6.49884 20.675 6.49884 14.926 10.998 10.0697 16.747 9.64124L17.5326 9.56982 17.8897 8.89137C19.2108 6.42753 21.3533 4.53501 23.96 3.5709 25.1741 3.1067 26.4238 2.89245 27.6736 2.89245 27.7807 2.89245 27.8879 2.89245 28.0307 2.89245 28.8877 2.92816 29.5661 3.64231 29.5661 4.53501L29.5661 21.8176 20.6035 21.8176 19.7108 20.9249C20.0678 20.2465 20.2821 19.4252 20.2821 18.6039 20.2821 15.8544 18.0325 13.6048 15.283 13.6048 12.5335 13.6048 10.2839 15.8544 10.2839 18.6039 10.2839 21.3534 12.5335 23.603 15.283 23.603 16.1757 23.603 16.997 23.3888 17.7111 22.9603L19.4251 24.6743 29.5661 24.6743 29.5661 30.0304 16.14 30.0304C15.5329 27.9594 13.6047 26.4597 11.3551 26.4597 8.6056 26.4597 6.356 28.7093 6.356 31.4588 6.356 34.2083 8.6056 36.4578 11.3551 36.4578 13.6047 36.4578 15.5329 34.9581 16.14 32.8871L29.5661 32.8871 29.5661 38.2432 19.4251 38.2432 17.9611 39.7072C17.1755 39.2073 16.2828 38.9573 15.3187 38.9573 12.5692 38.9573 10.3196 41.2069 10.3196 43.9564 10.3196 46.7059 12.5692 48.9555 15.3187 48.9555 18.0682 48.9555 20.3178 46.7059 20.3178 43.9564 20.3178 43.2066 20.1393 42.4924 19.8536 41.8854L20.6392 41.0998 29.6018 41.0998 29.6018 58.3824C29.5304 59.2751 28.8163 60.025 27.9236 60.025ZM15.2473 20.7464C14.0689 20.7464 13.1048 19.7823 13.1048 18.6039 13.1048 17.4256 14.0689 16.4614 15.2473 16.4614 16.4256 16.4614 17.3897 17.4256 17.3897 18.6039 17.3897 19.7823 16.4613 20.7464 15.2473 20.7464ZM13.4619 31.4588C13.4619 32.6371 12.4978 33.6012 11.3194 33.6012 10.141 33.6012 9.17693 32.6371 9.17693 31.4588 9.17693 30.2804 10.141 29.3163 11.3194 29.3163 12.4978 29.3163 13.4619 30.2804 13.4619 31.4588ZM17.3897 43.9564C17.3897 45.1348 16.4256 46.0989 15.2473 46.0989 14.0689 46.0989 13.1048 45.1348 13.1048 43.9564 13.1048 42.7781 14.0689 41.8139 15.2473 41.8139 16.4256 41.8139 17.3897 42.7781 17.3897 43.9564Z" fill="#312D2A" fill-rule="nonzero" fill-opacity="1" transform="matrix(1.00569 0 0 1 617.526 542.398)"/><path d="M34.5294 24.6742 48.9912 24.6742 54.8116 18.8538C55.5258 19.2466 56.3471 19.4608 57.204 19.4608 59.9536 19.4608 62.2032 17.2112 62.2032 14.4617 62.2032 11.7122 59.9536 9.46259 57.204 9.46259 54.4545 9.46259 52.2049 11.7122 52.2049 14.4617 52.2049 15.3187 52.4192 16.1043 52.7763 16.8184L47.7772 21.8175 34.4937 21.8175 34.4937 24.6742 34.5294 24.6742ZM57.2398 12.3549C58.4181 12.3549 59.3822 13.319 59.3822 14.4974 59.3822 15.6758 58.4181 16.6399 57.2398 16.6399 56.0614 16.6399 55.0973 15.6758 55.0973 14.4974 55.0973 13.319 56.0614 12.3549 57.2398 12.3549Z" fill="#312D2A" fill-rule="nonzero" fill-opacity="1" transform="matrix(1.00569 0 0 1 617.526 542.398)"/><path d="M34.5292 41.0998 47.8125 41.0998 52.8473 46.1346C52.5617 46.7773 52.3831 47.4915 52.3831 48.2414 52.3831 50.9909 54.6327 53.2405 57.3822 53.2405 60.1317 53.2405 62.3813 50.9909 62.3813 48.2414 62.3813 45.4919 60.1317 43.2423 57.3822 43.2423 56.4181 43.2423 55.5254 43.5279 54.7398 43.9921L49.0266 38.2432 34.565 38.2432 34.565 41.0998 34.5292 41.0998ZM57.3822 46.0989C58.5606 46.0989 59.5247 47.063 59.5247 48.2414 59.5247 49.4197 58.5606 50.3838 57.3822 50.3838 56.2039 50.3838 55.2398 49.4197 55.2398 48.2414 55.2398 47.063 56.2039 46.0989 57.3822 46.0989Z" fill="#312D2A" fill-rule="nonzero" fill-opacity="1" transform="matrix(1.00569 0 0 1 617.526 542.398)"/><path d="M63.4526 26.4594C61.203 26.4594 59.2747 27.9591 58.6677 30.0302L34.5292 30.0302 34.5292 32.8868 58.6677 32.8868C59.2747 34.9579 61.203 36.4578 63.4526 36.4578 66.2021 36.4578 68.4517 34.208 68.4517 31.4585 68.4517 28.709 66.2378 26.4594 63.4526 26.4594ZM63.4526 33.601C62.2742 33.601 61.3101 32.6369 61.3101 31.4585 61.3101 30.2802 62.2742 29.316 63.4526 29.316 64.6309 29.316 65.595 30.2802 65.595 31.4585 65.595 32.6369 64.6666 33.601 63.4526 33.601Z" fill="#312D2A" fill-rule="nonzero" fill-opacity="1" transform="matrix(1.00569 0 0 1 617.526 542.398)"/></g></g></g></g></g></svg>
          <text text-anchor="middle" x="888" y="471" fill="#2f2925" font-family="Avenir Next, Segoe UI, Helvetica Neue, Arial, sans-serif" font-size="16" font-weight="700">Oracle AI</text>
<text text-anchor="middle" x="888" y="489" fill="#2f2925" font-family="Avenir Next, Segoe UI, Helvetica Neue, Arial, sans-serif" font-size="16" font-weight="700">Database</text>
        </g>
</svg>
